<?xml version="1.0" standalone="no"?>
<!DOCTYPE svg PUBLIC "-//W3C//DTD SVG 20010904//EN"
 "http://www.w3.org/TR/2001/REC-SVG-20010904/DTD/svg10.dtd">
<svg version="1.0" xmlns="http://www.w3.org/2000/svg"
 width="64.000000pt" height="64.000000pt" viewBox="0 0 64.000000 64.000000"
 preserveAspectRatio="xMidYMid meet">

<g transform="translate(0.000000,64.000000) scale(0.100000,-0.100000)"
fill="#000000" stroke="none">
<path d="M250 589 c-71 -28 -128 -131 -117 -211 7 -49 -7 -91 -44 -139 l-28
-36 19 -69 c11 -38 20 -70 20 -71 0 -2 14 -3 31 -3 30 0 31 1 17 23 -29 43
-29 67 -1 78 14 5 39 24 56 42 l30 32 -7 -27 c-5 -23 -3 -28 18 -34 19 -4 27
-17 38 -57 12 -45 18 -52 41 -55 27 -3 37 11 17 23 -20 13 -9 30 27 42 29 9
39 8 50 -3 35 -35 110 -24 131 19 14 30 32 87 32 103 0 10 -6 11 -26 4 -33
-13 -125 -13 -159 0 -27 10 -27 10 -21 -25 4 -20 3 -35 -2 -35 -13 0 -25 71
-14 82 5 5 20 5 36 -2 36 -13 136 -13 136 0 0 6 -9 29 -20 50 -19 37 -24 40
-61 40 -46 0 -84 17 -118 54 -28 30 -47 32 -98 11 -20 -8 -38 -13 -40 -11 -2
2 -1 20 3 41 9 52 62 105 105 105 19 0 41 5 49 10 36 24 -47 40 -100 19z m200
-431 c0 -13 -23 -5 -28 10 -2 7 2 10 12 6 9 -3 16 -11 16 -16z m72 0 c-6 -6
-15 -8 -19 -4 -4 4 -1 11 7 16 19 12 27 3 12 -12z"/>
<path d="M530 95 c-16 -19 -4 -35 26 -35 27 0 29 7 10 33 -16 21 -20 21 -36 2z"/>
</g>
</svg>
